HIERARCHY
ROOT hip
{
  OFFSET 5.51535 103.731 -2.80141
  CHANNELS 6 Xposition Yposition Zposition Zrotation Xrotation Yrotation
  JOINT abdomen
  {
    OFFSET 0 -1.186 -1.5018
    CHANNELS 6 Xposition Yposition Zposition Zrotation Xrotation Yrotation
    JOINT abdomen2
    {
      OFFSET 0 9.964 0.2134
      CHANNELS 6 Xposition Yposition Zposition Zrotation Xrotation Yrotation
      JOINT chest
      {
        OFFSET 0 13.134 -3.2573
        CHANNELS 6 Xposition Yposition Zposition Zrotation Xrotation Yrotation
        JOINT neck
        {
          OFFSET 0 20.686 -1.6905
          CHANNELS 6 Xposition Yposition Zposition Zrotation Xrotation Yrotation
          JOINT head
          {
            OFFSET 0 7.23801 -0.1237
            CHANNELS 6 Xposition Yposition Zposition Zrotation Xrotation Yrotation
            End Site
            {
              OFFSET 0 0 0
            }
          }
        }
        JOINT lCollar
        {
          OFFSET 1.7069 20.075 5.0056
          CHANNELS 6 Xposition Yposition Zposition Zrotation Xrotation Yrotation
          JOINT lShldr
          {
            OFFSET 13.6458 -0.0470195 -4.849
            CHANNELS 6 Xposition Yposition Zposition Zrotation Xrotation Yrotation
            JOINT lForeArm
            {
              OFFSET 28.3255 -0.97589 2.2888
              CHANNELS 6 Xposition Yposition Zposition Zrotation Xrotation Yrotation
              JOINT lHand
              {
                OFFSET 22.1583 -0.529998 10.8316
                CHANNELS 6 Xposition Yposition Zposition Zrotation Xrotation Yrotation
                JOINT lThumb1
                {
                  OFFSET 0.786 0.111997 2.5817
                  CHANNELS 6 Xposition Yposition Zposition Zrotation Xrotation Yrotation
                  JOINT lThumb2
                  {
                    OFFSET 0.360097 -0.877999 4.2331
                    CHANNELS 6 Xposition Yposition Zposition Zrotation Xrotation Yrotation
                    JOINT lThumb2_End
                    {
                      OFFSET 1.8127 -1.21601 2.2227
                      CHANNELS 6 Xposition Yposition Zposition Zrotation Xrotation Yrotation
                      End Site
                      {
                        OFFSET 0.0180981 -0.012195 0.0222007
                      }
                    }
                  }
                }
                JOINT lCarpal1
                {
                  OFFSET 0.9571 1.114 1.7695
                  CHANNELS 6 Xposition Yposition Zposition Zrotation Xrotation Yrotation
                  JOINT lIndex1
                  {
                    OFFSET 4.12461 0.486992 4.1451
                    CHANNELS 6 Xposition Yposition Zposition Zrotation Xrotation Yrotation
                    JOINT lIndex2
                    {
                      OFFSET 3.4052 -1.45401 2.7682
                      CHANNELS 6 Xposition Yposition Zposition Zrotation Xrotation Yrotation
                      JOINT lIndex2_End
                      {
                        OFFSET 1.45309 -1.79499 1.2713
                        CHANNELS 6 Xposition Yposition Zposition Zrotation Xrotation Yrotation
                        End Site
                        {
                          OFFSET 0.0144979 -0.0179083 0.0126995
                        }
                      }
                    }
                  }
                  JOINT lMid1
                  {
                    OFFSET 5.6954 0.209987 2.1184
                    CHANNELS 6 Xposition Yposition Zposition Zrotation Xrotation Yrotation
                    JOINT lMid2
                    {
                      OFFSET 3.9766 -1.53999 2.3863
                      CHANNELS 6 Xposition Yposition Zposition Zrotation Xrotation Yrotation
                      JOINT lMid2_End
                      {
                        OFFSET 1.4042 -1.926 1.125
                        CHANNELS 6 Xposition Yposition Zposition Zrotation Xrotation Yrotation
                        End Site
                        {
                          OFFSET 0.013999 -0.0193044 0.011301
                        }
                      }
                    }
                  }
                }
                JOINT lCarpal2
                {
                  OFFSET 2.0956 0.66 -0.3894
                  CHANNELS 6 Xposition Yposition Zposition Zrotation Xrotation Yrotation
                  JOINT lRing1
                  {
                    OFFSET 5.0395 -0.090013 2.4971
                    CHANNELS 6 Xposition Yposition Zposition Zrotation Xrotation Yrotation
                    JOINT lRing2
                    {
                      OFFSET 3.7921 -1.55199 1.4806
                      CHANNELS 6 Xposition Yposition Zposition Zrotation Xrotation Yrotation
                      JOINT lRing2_End
                      {
                        OFFSET 1.4655 -1.808 0.9609
                        CHANNELS 6 Xposition Yposition Zposition Zrotation Xrotation Yrotation
                        End Site
                        {
                          OFFSET 0.0147015 -0.0181014 0.00959957
                        }
                      }
                    }
                  }
                  JOINT lPinky1
                  {
                    OFFSET 4.9141 -1.269 0.3591
                    CHANNELS 6 Xposition Yposition Zposition Zrotation Xrotation Yrotation
                    JOINT lPinky2
                    {
                      OFFSET 3.1477 -1.685 0.8462
                      CHANNELS 6 Xposition Yposition Zposition Zrotation Xrotation Yrotation
                      JOINT lPinky2_End
                      {
                        OFFSET 0.805498 -1.58501 0.795499
                        CHANNELS 6 Xposition Yposition Zposition Zrotation Xrotation Yrotation
                        End Site
                        {
                          OFFSET 0.00809703 -0.0157944 0.00799848
                        }
                      }
                    }
                  }
                }
              }
            }
          }
        }
        JOINT rCollar
        {
          OFFSET -1.7069 20.075 5.0056
          CHANNELS 6 Xposition Yposition Zposition Zrotation Xrotation Yrotation
          JOINT rShldr
          {
            OFFSET -13.6458 -0.0470107 -4.849
            CHANNELS 6 Xposition Yposition Zposition Zrotation Xrotation Yrotation
            JOINT rForeArm
            {
              OFFSET -28.3255 -0.975895 2.2888
              CHANNELS 6 Xposition Yposition Zposition Zrotation Xrotation Yrotation
              JOINT rHand
              {
                OFFSET -22.1583 -0.530007 10.8316
                CHANNELS 6 Xposition Yposition Zposition Zrotation Xrotation Yrotation
                JOINT rThumb1
                {
                  OFFSET -0.785997 0.112005 2.5817
                  CHANNELS 6 Xposition Yposition Zposition Zrotation Xrotation Yrotation
                  JOINT rThumb2
                  {
                    OFFSET -0.360106 -0.877994 4.2331
                    CHANNELS 6 Xposition Yposition Zposition Zrotation Xrotation Yrotation
                    JOINT rThumb2_End
                    {
                      OFFSET -1.8127 -1.216 2.2227
                      CHANNELS 6 Xposition Yposition Zposition Zrotation Xrotation Yrotation
                      End Site
                      {
                        OFFSET -0.0180972 -0.0121973 0.0222005
                      }
                    }
                  }
                }
                JOINT rCarpal1
                {
                  OFFSET -0.9571 1.114 1.7695
                  CHANNELS 6 Xposition Yposition Zposition Zrotation Xrotation Yrotation
                  JOINT rIndex1
                  {
                    OFFSET -4.1246 0.487011 4.1451
                    CHANNELS 6 Xposition Yposition Zposition Zrotation Xrotation Yrotation
                    JOINT rIndex2
                    {
                      OFFSET -3.4052 -1.45401 2.7682
                      CHANNELS 6 Xposition Yposition Zposition Zrotation Xrotation Yrotation
                      JOINT rIndex2_End
                      {
                        OFFSET -1.4531 -1.795 1.2713
                        CHANNELS 6 Xposition Yposition Zposition Zrotation Xrotation Yrotation
                        End Site
                        {
                          OFFSET -0.0145077 -0.0180048 0.0127017
                        }
                      }
                    }
                  }
                  JOINT rMid1
                  {
                    OFFSET -5.6954 0.210002 2.1184
                    CHANNELS 6 Xposition Yposition Zposition Zrotation Xrotation Yrotation
                    JOINT rMid2
                    {
                      OFFSET -3.9766 -1.54 2.3863
                      CHANNELS 6 Xposition Yposition Zposition Zrotation Xrotation Yrotation
                      JOINT rMid2_End
                      {
                        OFFSET -1.4042 -1.926 1.125
                        CHANNELS 6 Xposition Yposition Zposition Zrotation Xrotation Yrotation
                        End Site
                        {
                          OFFSET -0.0139948 -0.0192916 0.0112994
                        }
                      }
                    }
                  }
                }
                JOINT rCarpal2
                {
                  OFFSET -2.0956 0.66 -0.3894
                  CHANNELS 6 Xposition Yposition Zposition Zrotation Xrotation Yrotation
                  JOINT rRing1
                  {
                    OFFSET -5.03951 -0.0899879 2.4971
                    CHANNELS 6 Xposition Yposition Zposition Zrotation Xrotation Yrotation
                    JOINT rRing2
                    {
                      OFFSET -3.7921 -1.55201 1.4806
                      CHANNELS 6 Xposition Yposition Zposition Zrotation Xrotation Yrotation
                      JOINT rRing2_End
                      {
                        OFFSET -1.4655 -1.808 0.960901
                        CHANNELS 6 Xposition Yposition Zposition Zrotation Xrotation Yrotation
                        End Site
                        {
                          OFFSET -0.0146934 -0.0180999 0.00959832
                        }
                      }
                    }
                  }
                  JOINT rPinky1
                  {
                    OFFSET -4.91411 -1.26899 0.359202
                    CHANNELS 6 Xposition Yposition Zposition Zrotation Xrotation Yrotation
                    JOINT rPinky2
                    {
                      OFFSET -3.14769 -1.68501 0.846199
                      CHANNELS 6 Xposition Yposition Zposition Zrotation Xrotation Yrotation
                      JOINT rPinky2_End
                      {
                        OFFSET -0.805498 -1.585 0.7955
                        CHANNELS 6 Xposition Yposition Zposition Zrotation Xrotation Yrotation
                        End Site
                        {
                          OFFSET -0.00810035 -0.0158035 0.00800029
                        }
                      }
                    }
                  }
                }
              }
            }
          }
        }
      }
    }
  }
  JOINT lThigh
  {
    OFFSET 8.367 -8.2066 0.5982
    CHANNELS 6 Xposition Yposition Zposition Zrotation Xrotation Yrotation
    JOINT lShin
    {
      OFFSET 2.1923 -43.463 -0.4932
      CHANNELS 6 Xposition Yposition Zposition Zrotation Xrotation Yrotation
      JOINT lFoot
      {
        OFFSET 0.733301 -45.8593 -2.6451
        CHANNELS 6 Xposition Yposition Zposition Zrotation Xrotation Yrotation
        End Site
        {
          OFFSET 2.6618 -4.2699 12.3931
        }
      }
    }
  }
  JOINT rThigh
  {
    OFFSET -8.367 -8.2066 0.5982
    CHANNELS 6 Xposition Yposition Zposition Zrotation Xrotation Yrotation
    JOINT rShin
    {
      OFFSET -2.1923 -43.463 -0.4931
      CHANNELS 6 Xposition Yposition Zposition Zrotation Xrotation Yrotation
      JOINT rFoot
      {
        OFFSET -0.733299 -45.8593 -2.6451
        CHANNELS 6 Xposition Yposition Zposition Zrotation Xrotation Yrotation
        End Site
        {
          OFFSET -2.6618 -4.2699 12.3931
        }
      }
    }
  }
}
MOTION
Frames:	4
Frame Time:	0.0333333
-41.9673 100.048 -52.8325 -0.630002 6.11144 101.885 1.2224e-006 -1.186 -1.5018 0.00562749 -2.15303 1.02199 -7.37431e-007 9.964 0.213401 0.0497621 -4.30561 2.04635 -1.51778e-006 13.134 -3.2573 0.0497673 -4.30561 2.04639 6.84783e-007 20.686 -1.6905 -0.568437 13.6126 -8.57842 5.48462e-007 7.238 -0.123701 -6.32864 -1.1007 -8.81008 1.7069 20.075 5.0056 0.49645 0.856059 8.23862 13.6458 -0.0470121 -4.849 -74.233 -0.444479 34.0629 28.3255 -0.975907 2.28881 -1.61797 8.30919 -8.63403 22.1583 -0.530004 10.8316 -26.7071 -34.8373 -2.26929 0.786006 0.111998 2.5817 0.000346278 0.000298144 2.97971e-005 0.360099 -0.878 4.2331 -0.000278911 -0.000199488 -2.49982e-006 1.81269 -1.21601 2.2227 -0.00017659 5.58169e-005 1.36881e-005 0.9571 1.114 1.7695 -2.38542e-015 6.36111e-015 3.18055e-015 4.1246 0.486991 4.14511 -0.000101543 -0.000123074 0.000175149 3.4052 -1.454 2.7682 0.000386442 0.000110592 4.79088e-006 1.4531 -1.79499 1.2713 -0.000187809 2.42162e-005 2.08657e-005 5.69541 0.209987 2.1184 2.01423 -1.01027 -0.822507 3.9766 -1.53999 2.3863 2.01524 -1.01086 -0.822919 1.4042 -1.926 1.125 2.01531 -1.01095 -0.823225 2.0956 0.66 -0.3894 -2.38542e-015 6.36111e-015 3.18055e-015 5.0395 -0.0900114 2.4971 1.83862 -3.86637 -5.61573 3.7921 -1.55199 1.4806 4.41722 -2.45618 -2.02478 1.4655 -1.808 0.960899 4.41751 -2.45619 -2.02483 4.9141 -1.269 0.359099 10.759 -6.72881 -4.53616 3.1477 -1.68501 0.846199 3.85858 -2.28131 -1.74598 0.805497 -1.58501 0.795503 2.70804 -1.58472 -1.23799 -1.7069 20.075 5.0056 -43.5815 -1.20663 5.58243 -13.6458 -0.0470076 -4.849 -9.52642 -41.9655 -7.41476 -28.3255 -0.975891 2.2888 7.4222 -33.1607 10.4225 -22.1583 -0.530007 10.8316 11.1322 -20.0414 -6.40166 -0.785997 0.112007 2.5817 -19.2121 49.9311 17.782 -0.360104 -0.877993 4.2331 -0.51826 0.461412 -1.59088 -1.8127 -1.216 2.2227 -2.77348 2.81313 -9.01341 -0.9571 1.114 1.7695 -3.18055e-015 -3.18055e-015 -6.36111e-015 -4.12461 0.487012 4.14511 -23.6185 3.40207 -15.5055 -3.4052 -1.45401 2.76819 39.4979 10.0978 -9.27472 -1.4531 -1.795 1.2713 38.8029 9.986 -9.06152 -5.69541 0.210001 2.11841 -1.04221 5.48644 -10.0637 -3.9766 -1.54 2.3863 52.309 13.5299 -14.1045 -1.4042 -1.92599 1.12501 44.0034 12.3921 -11.1857 -2.0956 0.66 -0.3894 -3.18055e-015 -3.18055e-015 -6.36111e-015 -5.03951 -0.0899862 2.4971 16.4926 0.275084 -5.6591 -3.7921 -1.55201 1.4806 37.334 11.9096 -10.7863 -1.4655 -1.80801 0.960895 38.6321 12.1694 -11.2725 -4.91411 -1.26899 0.359207 24.6638 -0.263237 -2.07537 -3.14769 -1.68501 0.846194 30.5205 11.3108 -8.19089 -0.805502 -1.58499 0.795503 30.4595 11.2958 -8.16998 8.36701 -8.20661 0.598203 -24.2507 2.37234 -2.01021 2.19231 -43.4631 -0.493188 0.516615 -1.53357 0.99173 0.733296 -45.8593 -2.6451 10.4273 -0.00619685 -6.20421 -8.367 -8.20661 0.598199 -1.98011 -16.062 45.669 -2.19329 -43.463 -0.49198 13.3755 41.8806 -5.66301 -0.733305 -45.8594 -2.6451 -15.7801 3.29782 -23.1773 
-42.0173 100.001 -52.8664 -1.15984 6.36776 102.442 -1.5412e-006 -1.186 -1.5018 -0.198775 -2.11724 0.917672 -1.04895e-006 9.964 0.213401 -0.36395 -4.23739 1.8296 7.15313e-007 13.134 -3.2573 -0.363949 -4.23739 1.82963 1.29305e-006 20.686 -1.6905 -0.318023 13.3451 -9.47563 2.2528e-006 7.23801 -0.123701 -6.57372 -1.10547 -9.67003 1.7069 20.075 5.0056 0.954115 0.825941 7.91324 13.6458 -0.0470163 -4.84901 -74.2266 -0.221947 33.8842 28.3255 -0.975915 2.28882 -1.56897 8.96469 -7.57021 22.1583 -0.529997 10.8316 -25.3755 -32.348 0.240441 0.786007 0.111995 2.5817 0.100539 0.0664491 0.323781 0.3601 -0.877998 4.2331 -0.0307366 -0.00385377 -0.0558663 1.81269 -1.21601 2.2227 0.0683703 0.00835911 0.125676 0.9571 1.114 1.7695 1.59028e-015 0 -0 4.1246 0.48699 4.14511 -0.362148 0.253091 0.378762 3.4052 -1.454 2.7682 -0.256218 0.113603 0.105137 1.45309 -1.79499 1.2713 -0.317003 0.140094 0.129907 5.69541 0.209989 2.11841 1.72319 -0.769964 -0.658309 3.9766 -1.53999 2.3863 1.60224 -0.800751 -0.656677 1.4042 -1.926 1.125 1.71003 -0.855514 -0.700471 2.0956 0.66 -0.3894 1.59028e-015 0 -0 5.0395 -0.0900146 2.4971 1.54764 -3.65531 -5.38766 3.7921 -1.55199 1.4806 3.95987 -2.19255 -1.82219 1.4655 -1.808 0.960903 4.06377 -2.25214 -1.8683 4.9141 -1.26901 0.359099 10.2187 -6.40496 -4.39187 3.1477 -1.68501 0.846204 3.47358 -2.04668 -1.57736 0.805497 -1.58501 0.795501 2.39729 -1.39892 -1.09894 -1.7069 20.075 5.0056 -43.9689 -1.18825 5.53061 -13.6458 -0.0470106 -4.849 -9.12924 -41.0981 -8.86421 -28.3255 -0.975889 2.2888 7.3606 -33.5771 10.8183 -22.1583 -0.530014 10.8316 11.8411 -20.9172 -5.98408 -0.785998 0.112005 2.5817 -19.2121 49.9311 17.782 -0.360111 -0.87799 4.23311 -0.518278 0.461414 -1.59089 -1.81269 -1.216 2.2227 -2.77347 2.81313 -9.0134 -0.9571 1.114 1.7695 9.54166e-015 -6.36111e-015 9.54166e-015 -4.1246 0.487011 4.1451 -23.6185 3.40207 -15.5055 -3.4052 -1.45401 2.76819 39.4979 10.0978 -9.27474 -1.4531 -1.795 1.27129 38.8029 9.98599 -9.06152 -5.6954 0.210003 2.1184 -1.04219 5.48645 -10.0637 -3.9766 -1.54 2.3863 52.309 13.5299 -14.1045 -1.4042 -1.926 1.125 44.0034 12.3921 -11.1857 -2.0956 0.66 -0.3894 9.54166e-015 -6.36111e-015 9.54166e-015 -5.03951 -0.0899877 2.4971 16.4926 0.275088 -5.6591 -3.7921 -1.55201 1.4806 37.334 11.9096 -10.7863 -1.4655 -1.808 0.960905 38.6321 12.1694 -11.2725 -4.91411 -1.26899 0.359208 24.6638 -0.263231 -2.07538 -3.1477 -1.68501 0.846203 30.5213 11.3112 -8.19125 -0.805501 -1.585 0.7955 30.4595 11.2958 -8.16999 8.367 -8.2066 0.598201 -24.6398 2.02647 -2.64485 2.1923 -43.463 -0.493203 0.500773 -1.50032 0.883384 0.7333 -45.8593 -2.6451 10.0577 -0.0544464 -5.82071 -8.367 -8.20659 0.598201 -2.23808 -16.7679 45.6004 -2.19291 -43.463 -0.492406 13.6365 42.5011 -5.95533 -0.733297 -45.8593 -2.6451 -15.0886 3.46998 -23.3202 
-42.0218 99.9574 -52.8102 -1.65439 6.65167 102.772 3.60948e-007 -1.186 -1.5018 -0.410089 -2.0793 0.90165 -6.48661e-007 9.964 0.213401 -0.788141 -4.16475 1.79016 -8.40607e-007 13.134 -3.2573 -0.788141 -4.16475 1.79015 2.90613e-007 20.686 -1.6905 0.300445 13.5128 -10.0009 2.10712e-007 7.23801 -0.1237 -6.99848 -1.34304 -10.3444 1.7069 20.075 5.0056 1.36827 0.792446 7.56348 13.6458 -0.0470135 -4.849 -74.1596 -0.0918877 34.2787 28.3255 -0.975899 2.2888 -1.10217 9.97258 -6.88632 22.1583 -0.529992 10.8316 -24.9754 -31.5732 1.55705 0.786004 0.112 2.5817 0.349539 0.232378 1.13291 0.360098 -0.877997 4.2331 -0.113489 -0.0135894 -0.207516 1.81269 -1.21601 2.2227 0.254304 0.0316684 0.466724 0.9571 1.114 1.7695 -4.77083e-015 9.54166e-015 -0 4.1246 0.486992 4.1451 -1.35153 0.937847 1.41102 3.4052 -1.45401 2.7682 -0.953749 0.419291 0.393076 1.4531 -1.79499 1.2713 -1.17857 0.516585 0.486345 5.69541 0.209986 2.11841 0.929232 -0.120436 -0.209139 3.9766 -1.53999 2.3863 0.478124 -0.236547 -0.197837 1.4042 -1.926 1.125 0.879925 -0.436999 -0.363191 2.0956 0.66 -0.3894 -4.77083e-015 9.54166e-015 -0 5.0395 -0.0900088 2.4971 0.767063 -3.09501 -4.76979 3.7921 -1.55199 1.4806 2.714 -1.48522 -1.26182 1.4655 -1.808 0.960899 3.10106 -1.70317 -1.43716 4.9141 -1.269 0.359099 8.74874 -5.53542 -3.98363 3.1477 -1.685 0.8462 2.42529 -1.41561 -1.11184 0.8055 -1.58501 0.795502 1.5539 -0.906293 -0.719841 -1.7069 20.075 5.0056 -44.1182 -1.17451 5.20245 -13.6458 -0.0470156 -4.849 -8.94159 -39.8186 -10.1022 -28.3255 -0.975881 2.2888 6.94124 -33.2801 10.9238 -22.1583 -0.530003 10.8316 12.8677 -22.7694 -5.40257 -0.785998 0.112005 2.5817 -19.2122 49.9311 17.7821 -0.360111 -0.877991 4.2331 -0.51827 0.461423 -1.5909 -1.81269 -1.216 2.22269 -2.77349 2.81314 -9.01342 -0.9571 1.114 1.7695 -3.18055e-015 3.18055e-015 6.36111e-015 -4.1246 0.487012 4.1451 -23.6185 3.40207 -15.5055 -3.4052 -1.45401 2.76821 39.4979 10.0978 -9.27475 -1.4531 -1.795 1.27129 38.8029 9.98602 -9.06157 -5.6954 0.210004 2.1184 -1.04219 5.48644 -10.0637 -3.9766 -1.54 2.38631 52.309 13.5299 -14.1045 -1.4042 -1.926 1.125 44.0035 12.3921 -11.1857 -2.0956 0.66 -0.3894 -3.18055e-015 3.18055e-015 6.36111e-015 -5.03951 -0.0899887 2.4971 16.4926 0.275095 -5.65911 -3.7921 -1.55201 1.4806 37.3341 11.9096 -10.7863 -1.4655 -1.808 0.960903 38.6322 12.1694 -11.2725 -4.91411 -1.26899 0.359203 24.6638 -0.263209 -2.07539 -3.1477 -1.68501 0.846201 30.5222 11.3116 -8.19161 -0.8055 -1.585 0.7955 30.4595 11.2958 -8.16998 8.367 -8.20659 0.598202 -24.9555 1.55832 -2.00048 2.1923 -43.463 -0.493196 0.465514 -1.34448 0.703645 0.733304 -45.8593 -2.6451 9.81361 -0.180904 -6.73952 -8.367 -8.2066 0.5982 -2.15224 -17.3007 46.3964 -2.19229 -43.4631 -0.493106 13.7879 43.1932 -7.4636 -0.733305 -45.8593 -2.64511 -14.2109 3.60118 -22.4476 
-42.0595 99.9083 -52.6706 -2.20175 7.07155 103.596 -1.30804e-006 -1.18599 -1.5018 -0.660588 -2.0099 0.891473 2.52173e-007 9.964 0.213401 -1.29099 -4.02972 1.76106 -9.02427e-007 13.134 -3.2573 -1.29099 -4.02972 1.76106 9.5105e-007 20.686 -1.6905 1.04472 13.7308 -10.4855 -1.78306e-006 7.23801 -0.1237 -7.38264 -1.45338 -10.5884 1.7069 20.075 5.0056 1.76466 0.754308 7.18344 13.6458 -0.0470176 -4.84899 -74.0166 -0.000757098 34.7255 28.3255 -0.975893 2.2888 -0.587157 10.683 -6.34441 22.1583 -0.529995 10.8316 -24.8058 -31.3791 2.74437 0.786001 0.111994 2.5817 0.669272 0.451772 2.19603 0.360098 -0.877995 4.2331 -0.235476 -0.0275519 -0.431072 1.8127 -1.21602 2.2227 0.528069 0.0680073 0.969167 0.9571 1.114 1.7695 -3.18055e-015 0 -0 4.1246 0.486991 4.1451 -2.82776 1.93982 2.94474 3.4052 -1.45401 2.7682 -1.98455 0.863332 0.82417 1.45309 -1.79499 1.2713 -2.45259 1.06154 1.02188 5.6954 0.20999 2.1184 -0.252028 0.829367 0.462211 3.9766 -1.54 2.3863 -1.18664 0.5782 0.498328 1.40419 -1.926 1.125 -0.347838 0.170757 0.144836 2.0956 0.66 -0.3894 -3.18055e-015 0 -0 5.03951 -0.0900118 2.49711 -0.386228 -2.27485 -3.84211 3.7921 -1.55199 1.4806 0.865968 -0.465525 -0.408562 1.4655 -1.808 0.9609 1.67527 -0.90759 -0.7853 4.91411 -1.26901 0.359101 6.57241 -4.28065 -3.33805 3.1477 -1.685 0.846197 0.871585 -0.501456 -0.405113 0.805501 -1.58501 0.795496 0.301669 -0.17919 -0.142994 -1.7069 20.075 5.0056 -44.2256 -1.13594 4.75391 -13.6458 -0.0470089 -4.849 -9.07252 -38.1256 -11.8682 -28.3255 -0.975882 2.2888 6.50726 -32.9891 11.3537 -22.1583 -0.529991 10.8316 13.9678 -24.7818 -5.00893 -0.785998 0.112004 2.5817 -19.2121 49.9311 17.782 -0.360108 -0.877992 4.2331 -0.518278 0.461422 -1.59088 -1.81269 -1.216 2.2227 -2.77346 2.81314 -9.01339 -0.9571 1.114 1.7695 3.18055e-015 3.18055e-015 3.18055e-015 -4.1246 0.487011 4.1451 -23.6185 3.40209 -15.5055 -3.4052 -1.45401 2.7682 39.4979 10.0979 -9.27473 -1.4531 -1.795 1.27129 38.8029 9.98601 -9.06153 -5.6954 0.21 2.1184 -1.04219 5.48647 -10.0637 -3.9766 -1.54 2.3863 52.309 13.53 -14.1045 -1.4042 -1.926 1.125 44.0034 12.3921 -11.1857 -2.0956 0.66 -0.3894 3.18055e-015 3.18055e-015 3.18055e-015 -5.03951 -0.089987 2.49711 16.4926 0.275103 -5.65911 -3.7921 -1.55201 1.4806 37.334 11.9096 -10.7863 -1.4655 -1.808 0.960903 38.6321 12.1694 -11.2725 -4.9141 -1.26899 0.359198 24.6638 -0.263211 -2.07539 -3.1477 -1.68501 0.846202 30.523 11.312 -8.19194 -0.805498 -1.585 0.795497 30.4595 11.2958 -8.16997 8.367 -8.20659 0.598196 -25.3951 1.25876 -1.9189 2.1923 -43.463 -0.493197 0.419898 -1.3129 0.466011 0.733305 -45.8593 -2.6451 9.45751 -0.156219 -7.24114 -8.367 -8.2066 0.598201 -2.3058 -17.9409 46.592 -2.1923 -43.463 -0.493106 14.1286 44.1133 -8.04911 -0.733296 -45.8594 -2.64509 -13.2274 3.70652 -22.4632 
